<svg version="1.1" xmlns="http://www.w3.org/2000/svg" xmlns:xlink="http://www.w3.org/1999/xlink" width="24" height="24" viewBox="0,0,256,256"><g fill="#d8e1e8" fill-rule="nonzero" stroke="none" stroke-width="1" stroke-linecap="butt" stroke-linejoin="miter" stroke-miterlimit="10" stroke-dasharray="" stroke-dashoffset="0" font-family="none" font-weight="none" font-size="none" text-anchor="none" style="mix-blend-mode: normal"><g transform="translate(0.00121,-0.00426) scale(10.66667,10.66667)"><path d="M3.28034,2.21968c-0.29289,-0.2929 -0.76777,-0.29291 -1.06066,-0.00002c-0.2929,0.29289 -0.29291,0.76777 -0.00002,1.06066l2.56624,2.5663c-2.2964,3.38762 -1.94402,8.03448 1.05713,11.03568c0.29584,0.2958 0.66311,0.6591 1.10187,1.09l3.4911,3.3958c0.8721,0.8435 2.2559,0.8436 3.1282,0.0003c1.3958,-1.3496 2.531,-2.4535 3.4058,-3.3122l0.0127,-0.0125l3.7367,3.7368c0.2929,0.2929 0.7678,0.2929 1.0607,0c0.2929,-0.2929 0.2929,-0.7678 0,-1.0607zM15.9221,16.983c-0.0019,0.0018 -0.0038,0.0037 -0.0057,0.0055l-3.3949,3.3015c-0.2907,0.2811 -0.752,0.2811 -1.0427,-0.0001c-1.2397,-1.199 -2.26913,-2.1994 -3.08803,-3.0008l-1.48708,-1.4675c-2.41282,-2.4128 -2.75726,-6.11075 -1.03332,-8.89049l3.24322,3.24329c-0.07497,0.2624 -0.11512,0.5396 -0.11512,0.8261c0,1.6577 1.34383,3.0016 3.00153,3.0016c0.2865,0 0.5637,-0.0402 0.8261,-0.1151z"></path><path d="M11.2702,8.08832l3.642,3.64208c0.0584,-0.2336 0.0894,-0.4781 0.0894,-0.7299c0,-1.65769 -1.3439,-3.00153 -3.0016,-3.00153c-0.2517,0 -0.4962,0.03098 -0.7298,0.08935z"></path><path d="M17.0963,5.62897c2.4888,2.48874 2.7769,6.34473 0.8645,9.15013l1.0763,1.0763c2.4894,-3.4059 2.196,-8.21097 -0.8801,-11.28709c-3.0761,-3.07606 -7.8811,-3.36947 -11.28695,-0.88021l1.07632,1.07633c2.80533,-1.91234 6.66123,-1.62416 9.14993,0.86454z"></path></g></g></svg>